<svg xmlns="http://www.w3.org/2000/svg" width="315.952" height="111.352" viewBox="0 0 315.952 111.352"><g id="Layer_1"><path d="M33.884 7.654c-39.712 5.703-27.882 75.721 13 65.5 24.48-6.12 21.676-61.482-13.5-65" fill="#FF7518"/><path d="M33.884 7.654c-39.712 5.703-27.882 75.721 13 65.5 24.48-6.12 21.676-61.482-13.5-65" fill-opacity="0" stroke="#000" stroke-linecap="round" stroke-linejoin="round"/><path d="M45.478 11.959C67.576-8.166 56.384 5.584 56.384 22.654z" fill="#FF7518"/><path d="M45.478 11.959C67.576-8.166 56.384 5.584 56.384 22.654zM49.384 15.154c4.722-6.046 6.696-3.892 3.5 2.5" fill-opacity="0" stroke="#000" stroke-linecap="round" stroke-linejoin="round"/><path d="M14.228 20.209C-2.393-7.062-5.177.006 20.728 12.959z" fill="#FF7518"/><path d="M14.228 20.209C-2.393-7.062-5.177.006 20.728 12.959zM11.384 13.654c.92-6.548.304.152 5 2.5" fill-opacity="0" stroke="#000" stroke-linecap="round" stroke-linejoin="round"/><path d="M83.729 50.522c-5.84 5.751-2.707 67.54 9.155 59.632 13.385-8.923 4.979-43.761 3.445-56.032z" fill="#9370DB"/><path d="M83.729 50.522c-5.84 5.751-2.707 67.54 9.155 59.632 13.385-8.923 4.979-43.761 3.445-56.032z" fill-opacity="0" stroke="#000" stroke-linecap="round" stroke-linejoin="round"/><path d="M203.361 43.536c8.305 4.734 27.756 2.385 35.023-4.882 14.243-14.243 37.195-29.5 59-29.5 4.952 0 25.125 1.875 15.5 11.5-6.975 6.975-28.126 6.657-37.5 9-10.551 2.638-72.023 43.027-72.023 14.007" fill="#FFDF00"/><path d="M203.361 43.536c8.305 4.734 27.756 2.385 35.023-4.882 14.243-14.243 37.195-29.5 59-29.5 4.952 0 25.125 1.875 15.5 11.5-6.975 6.975-28.126 6.657-37.5 9-10.551 2.638-72.023 43.027-72.023 14.007" fill-opacity="0" stroke="#000" stroke-linecap="round" stroke-linejoin="round"/><path d="M113.529 57.922c-2.734 59.266 26.925 71.29 18.355 2.732" fill="#9370DB"/><path d="M113.529 57.922c-2.734 59.266 26.925 71.29 18.355 2.732" fill-opacity="0" stroke="#000" stroke-linecap="round" stroke-linejoin="round"/><path d="M155.089 60.786c-4.3 66.735 35.738 46.925 17.625-1.375z" fill="#9370DB"/><path d="M155.089 60.786c-4.3 66.735 35.738 46.925 17.625-1.375z" fill-opacity="0" stroke="#000" stroke-linecap="round" stroke-linejoin="round"/><path d="M188.384 55.654c7.184 72.63 38.784 47.069 12-6.5z" fill="#9370DB"/><path d="M188.384 55.654c7.184 72.63 38.784 47.069 12-6.5z" fill-opacity="0" stroke="#000" stroke-linecap="round" stroke-linejoin="round"/><path d="M203.486 43.786c-14.415 28.83-120.943 17.615-141.157-5.864 5.535-4.944 14.455-8.648 25.227-11.152 38.188-8.876 99.637-2.66 115.93 16.891" fill="#FF43A4" fill-opacity=".998"/><path d="M203.486 43.786c-14.415 28.83-120.943 17.615-141.157-5.864 5.535-4.944 14.455-8.648 25.227-11.152 38.188-8.876 99.637-2.66 115.93 16.891M62.313 37.922s0 0 0 0M62.313 37.922s0 0 0 0M62.313 37.922s0 0 0 0M62.298 37.938s0 0 0 0M62.298 37.938s0 0 0 0M62.298 37.938s0 0 0 0M30.03 53.536c3.42-1.528 7.621-2.5 11.125-3.375M41.384 50.154c-.207 3.88-.526 7.71-1 11.5M29.884 53.654c4.835 1.245 7.472 4.958 10.521 8.007M43.384 50.654c3.455.239 4.374 2.375 6 4M44.384 54.654c1.911 2.73 4.734 4.735 7 7M40.884 58.654c4.716 1.871 7.205 3.41 9.5 8M33.384 55.654c-3.035 1.196-7.013 3.257-10.5 5M36.53 58.036c-4.408 2-6.527 3.428-9.146 7.618M39.384 61.154c-1.745 3.448-3.764 6.528-5.5 10" fill-opacity="0" stroke="#000" stroke-linecap="round" stroke-linejoin="round"/><path d="M25.28 29.161c-20.125 2.5 6.104 27.646 6.104 5.993 0-4.349-2.437-5.109-6-6" fill="#FFF"/><path d="M25.28 29.161c-20.125 2.5 6.104 27.646 6.104 5.993 0-4.349-2.437-5.109-6-6" fill-opacity="0" stroke="#000" stroke-linecap="round" stroke-linejoin="round"/><path d="M49.884 28.654c-19.731 2.969 4.5 23.839 4.5 6.5 0-4.277-.729-7.118-4.229-6.493" fill="#FFF"/><path d="M49.884 28.654c-19.731 2.969 4.5 23.839 4.5 6.5 0-4.277-.729-7.118-4.229-6.493" fill-opacity="0" stroke="#000" stroke-linecap="round" stroke-linejoin="round"/><g><path d="M23.905 33.661l-.018.018c-6.107 5.857 5.893 8.732 3.497-.524 0-.001.146-.119.146-.119-1.854-.994-3.625.625-3.625.625z"/><path d="M23.905 33.661s0 0 0 0l-.018.018c-6.107 5.857 5.893 8.732 3.497-.524 0-.001.146-.119.146-.119-1.854-.994-3.625.625-3.625.625z" fill-opacity="0" stroke="#000" stroke-linecap="round" stroke-linejoin="round"/></g><g><path d="M49.384 32.654c-9.205 7.209 7.775 7.776.5.5"/><path d="M49.384 32.654c-9.205 7.209 7.775 7.776.5.5" fill-opacity="0" stroke="#000" stroke-linecap="round" stroke-linejoin="round"/></g><g><path d="M62.623 37.85c4.73 5.494 14.186 10.316 26.082 14.111-1.883-7.532-2.386-17.174-1.113-25.154-10.771 2.504-19.411 6.102-24.946 11.046z" fill="#0AE"/><path d="M62.623 37.85c4.73 5.494 14.186 10.316 26.082 14.111-1.883-7.532-2.386-17.174-1.113-25.154-10.771 2.504-19.411 6.102-24.946 11.046z" fill-opacity="0" stroke="#000" stroke-linecap="round" stroke-linejoin="round"/></g><g><path d="M94.654 25.337c4.15-.729 8.501-1.302 12.98-1.721-2.308 10.465-1.267 23.287 1.25 33.375-4.322-.825-8.211-1.594-12.217-2.646-2.163-8.669-1.865-19.835-1.812-28.992" fill="#0AE"/><path d="M94.654 25.337c4.15-.729 8.501-1.302 12.98-1.721-2.308 10.465-1.267 23.287 1.25 33.375-4.322-.825-8.211-1.594-12.217-2.646-2.163-8.669-1.865-19.835-1.812-28.992" fill-opacity="0" stroke="#000" stroke-linecap="round" stroke-linejoin="round"/></g><g><path d="M140.171 23.197c-.791 12.39.798 26.161 4.063 37.624-7.914-.226-16.146-.908-24.053-1.993-2.825-11.337-3.948-23.795-4.073-35.826 7.889-.387 16.02-.324 24.029.179" fill="#0AE"/><path d="M140.171 23.197c-.791 12.39.798 26.161 4.063 37.624-7.914-.226-16.146-.908-24.053-1.993-2.825-11.337-3.948-23.795-4.073-35.826 7.889-.387 16.02-.324 24.029.179" fill-opacity="0" stroke="#000" stroke-linecap="round" stroke-linejoin="round"/></g><g><path d="M87.756 26.714c2.211-.515 4.501-.978 6.856-1.391" fill="#0AE"/><path d="M87.756 26.714c2.211-.515 4.501-.978 6.856-1.391" fill-opacity="0" stroke="#000" stroke-linecap="round" stroke-linejoin="round"/></g><g><path d="M107.592 23.605c2.802-.261 5.653-.462 8.537-.603" fill="#0AE"/><path d="M107.592 23.605c2.802-.261 5.653-.462 8.537-.603" fill-opacity="0" stroke="#000" stroke-linecap="round" stroke-linejoin="round"/></g><g><path d="M140.219 23.239c4.856.304 9.941.75 14.625 1.375" fill="#0AE"/><path d="M140.219 23.239c4.856.304 9.941.75 14.625 1.375" fill-opacity="0" stroke="#000" stroke-linecap="round" stroke-linejoin="round"/></g><g><path d="M168.13 26.95c1.667 10.793 1.892 22.015 5.688 32.174-4.784.79-9.923 1.306-15.28 1.571-4.067-10.884-2.455-24.552-4.008-36.103 4.65.622 9.175 1.401 13.497 2.336" fill="#0AE"/><path d="M168.13 26.95c1.667 10.793 1.892 22.015 5.688 32.174-4.784.79-9.923 1.306-15.28 1.571-4.067-10.884-2.455-24.552-4.008-36.103 4.65.622 9.175 1.401 13.497 2.336" fill-opacity="0" stroke="#000" stroke-linecap="round" stroke-linejoin="round"/><path d="M173.818 59.129c3.106-.511 6.062-1.138 8.831-1.885" fill="#0AE"/><path d="M173.818 59.129c3.106-.511 6.062-1.138 8.831-1.885" fill-opacity="0" stroke="#000" stroke-linecap="round" stroke-linejoin="round"/><g><path d="M182.648 57.244c10.228-2.761 17.889-7.171 21.069-13.531-4.944-5.933-13.794-10.564-25.144-13.992.341 9.449-1.321 19.751 4.125 27.375" fill="#0AE"/><path d="M182.648 57.244c10.228-2.761 17.889-7.171 21.069-13.531-4.944-5.933-13.794-10.564-25.144-13.992.341 9.449-1.321 19.751 4.125 27.375" fill-opacity="0" stroke="#000" stroke-linecap="round" stroke-linejoin="round"/></g><g><path d="M168.006 26.966c3.582.772 7.025 1.65 10.282 2.634" fill="#0AE"/><path d="M168.006 26.966c3.582.772 7.025 1.65 10.282 2.634" fill-opacity="0" stroke="#000" stroke-linecap="round" stroke-linejoin="round"/></g></g></g></svg>