<?xml version="1.0" standalone="no"?>
<!DOCTYPE svg PUBLIC "-//W3C//DTD SVG 20010904//EN"
 "http://www.w3.org/TR/2001/REC-SVG-20010904/DTD/svg10.dtd">
<svg version="1.0" xmlns="http://www.w3.org/2000/svg"
 width="431.000000pt" height="431.000000pt" viewBox="0 0 431.000000 431.000000"
 preserveAspectRatio="xMidYMid meet">
<metadata>
Created by potrace 1.11, written by Peter Selinger 2001-2013
</metadata>
<g transform="translate(0.000000,431.000000) scale(0.100000,-0.100000)"
fill="#000000" stroke="none">
<path d="M2210 4303 c-35 -10 -120 -56 -120 -64 0 -5 -5 -9 -10 -9 -25 0 -106
-110 -136 -182 -10 -27 -22 -48 -25 -48 -3 0 -11 10 -18 23 -12 22 -32 36
-133 91 -39 22 -67 47 -90 81 -44 66 -95 94 -163 90 -28 -1 -67 -11 -86 -21
-19 -10 -54 -25 -79 -34 -57 -19 -104 -80 -119 -152 l-11 -53 -84 2 c-103 2
-150 -8 -213 -45 -90 -53 -107 -120 -63 -248 18 -51 18 -53 -2 -92 -16 -33
-18 -47 -9 -77 11 -41 16 -37 -74 -55 -171 -34 -232 -118 -197 -270 16 -69 18
-113 8 -169 -8 -47 9 -103 43 -140 l28 -30 -18 -57 c-10 -31 -16 -60 -13 -65
3 -5 -3 -9 -13 -9 -10 0 -32 -9 -49 -19 -57 -35 -66 -112 -28 -240 18 -63 52
-90 90 -73 22 11 26 9 34 -14 6 -14 10 -35 10 -47 0 -12 4 -28 9 -36 7 -10 1
-25 -19 -50 -38 -47 -70 -120 -75 -170 -7 -75 44 -138 136 -165 9 -2 29 -31
44 -63 15 -31 39 -74 52 -95 l25 -37 -26 -65 c-28 -70 -34 -154 -15 -203 6
-15 14 -46 16 -68 8 -69 42 -118 93 -135 l45 -15 -1 -55 c-2 -84 29 -139 93
-162 18 -7 33 -15 33 -18 0 -3 -26 -18 -57 -34 -85 -41 -220 -132 -233 -155
-8 -17 -7 -24 10 -41 23 -23 31 -21 109 35 51 36 181 109 185 103 1 -1 9 -18
16 -37 20 -49 58 -91 84 -91 22 0 66 -25 56 -32 -3 -2 -18 -8 -34 -13 -92 -30
-92 -207 0 -298 50 -51 82 -62 174 -62 74 -1 89 -4 107 -22 l21 -21 -39 -16
c-22 -9 -46 -16 -55 -16 -26 0 -74 -55 -69 -80 11 -55 51 -73 120 -53 96 28
152 61 244 144 103 93 152 159 173 234 32 112 -4 277 -78 356 -22 23 -24 31
-18 82 4 32 11 57 16 57 5 0 25 -8 46 -19 45 -23 147 -49 239 -61 100 -13 328
-5 388 14 75 23 75 23 61 -32 -16 -60 -13 -114 12 -185 50 -141 162 -240 315
-278 28 -7 51 -19 54 -28 48 -161 177 -207 284 -100 22 22 48 53 58 70 11 19
21 26 26 20 3 -6 11 -9 16 -6 5 4 9 1 9 -6 0 -6 11 -22 24 -34 29 -27 56 -100
49 -134 -2 -13 -13 -37 -24 -52 -21 -30 -91 -89 -106 -89 -5 0 -24 -13 -42
-28 -39 -32 -44 -73 -14 -103 28 -28 52 -27 115 5 96 49 185 147 204 226 24
101 -21 216 -120 307 -55 50 -62 61 -55 81 24 64 40 230 29 311 l-6 49 35 -5
c132 -19 209 -48 289 -109 45 -34 65 -35 83 -2 9 17 4 26 -33 62 -71 68 -180
109 -348 131 -69 9 -80 45 -55 176 8 42 76 113 134 141 63 30 86 56 94 105 7
46 -17 85 -81 124 -52 33 -59 42 -76 95 -10 33 -35 93 -56 134 l-38 75 24 30
c29 36 69 119 78 161 4 18 16 40 28 50 34 32 51 76 52 140 1 77 -31 131 -98
163 -40 20 -78 51 -62 51 4 0 -5 17 -18 37 l-25 37 30 18 c16 10 32 18 35 18
16 0 129 97 151 131 49 74 33 151 -37 175 -34 11 -35 11 -76 13 -22 1 -33 5
-29 11 8 13 8 122 0 165 -3 17 -15 56 -27 89 -11 32 -16 61 -12 65 20 14 36
57 36 92 -1 73 -68 159 -148 190 -18 7 -80 10 -164 7 l-135 -3 -27 69 -28 70
17 50 c26 74 25 210 -2 256 -83 142 -201 146 -283 7 -14 -24 -21 -27 -47 -21
-39 8 -47 13 -40 25 4 5 2 9 -3 9 -5 0 -7 11 -4 25 7 39 -51 148 -101 188 -23
19 -55 38 -72 42 -38 10 -105 14 -125 8z m101 -150 c16 -10 35 -32 41 -50 6
-17 15 -30 19 -27 4 2 5 -5 2 -16 -3 -11 -2 -28 2 -37 12 -27 5 -55 -20 -85
l-23 -28 -26 31 c-18 20 -43 35 -76 44 -27 7 -51 11 -53 8 -3 -2 -19 -6 -37
-8 -38 -5 -67 -28 -73 -59 -3 -15 -5 -13 -5 9 -1 17 7 49 18 73 10 23 17 42
14 42 -13 0 94 95 120 106 42 18 63 17 97 -3z m-812 -69 c2 -2 -4 -20 -14 -40
-13 -28 -17 -60 -16 -126 1 -88 1 -89 -22 -82 -12 5 -32 8 -44 9 -13 0 -23 5
-24 10 0 6 -2 18 -4 27 -4 22 35 144 60 185 15 26 24 32 40 27 11 -4 22 -8 24
-10z m1261 -123 c5 -11 10 -36 10 -56 l0 -37 -29 28 c-25 24 -28 30 -19 55 12
34 23 37 38 10z m-970 -48 c0 -6 -5 -15 -10 -18 -6 -4 -8 -11 -4 -16 3 -5 2
-8 -3 -7 -4 1 -19 -4 -31 -11 -32 -17 -36 -10 -22 36 7 21 14 44 16 51 3 10
10 9 29 -5 13 -10 25 -23 25 -30z m295 -51 c-8 -8 -25 10 -25 26 0 13 2 13 14
-4 8 -10 13 -21 11 -22z m-867 19 c1 -1 2 -8 2 -16 0 -8 -17 -23 -37 -34 -21
-10 -50 -30 -65 -44 -14 -13 -41 -27 -60 -30 -18 -3 -42 -8 -54 -12 -18 -6
-22 0 -36 49 -8 30 -12 60 -8 66 10 17 103 29 185 25 39 -2 71 -4 73 -4z
m1332 -40 c0 -29 -19 -55 -21 -29 0 7 -2 23 -3 36 -2 13 3 22 11 22 8 0 13
-12 13 -29z m-670 -65 c0 -8 -15 -19 -32 -25 l-33 -11 30 24 c36 30 35 30 35
12z m235 -128 c11 -2 18 -10 16 -19 -24 -94 -1 -175 60 -216 21 -14 52 -26 69
-27 34 -1 35 -2 15 -36 -16 -28 -19 -88 -6 -122 5 -13 23 -37 40 -54 l31 -30
-82 -17 c-106 -22 -154 -45 -150 -72 8 -43 26 -45 131 -16 41 12 107 23 147
26 l73 4 6 -30 c8 -36 6 -38 -31 -45 -90 -15 -165 -53 -208 -104 -27 -32 -25
-54 4 -70 13 -7 25 -4 43 11 l26 20 15 -30 c21 -39 68 -56 106 -36 32 16 51
60 39 90 -4 11 -8 26 -8 33 -1 19 60 14 94 -8 17 -11 47 -20 68 -20 36 0 37
-1 38 -37 0 -21 3 -47 5 -58 10 -46 12 -333 3 -375 -6 -25 -12 -70 -14 -100
-1 -30 -12 -82 -23 -115 -11 -33 -23 -73 -26 -90 -14 -61 -96 -211 -145 -266
-130 -145 -263 -181 -496 -134 -103 21 -297 122 -439 229 -95 72 -236 195
-236 205 1 3 26 33 56 66 96 104 144 228 148 380 1 34 7 47 39 74 l37 33 11
-31 c23 -67 112 -73 145 -10 8 16 15 30 16 31 1 2 -4 13 -10 24 -15 29 -9 32
44 24 39 -6 50 -4 66 12 14 14 16 23 8 38 -29 54 -224 43 -315 -19 -42 -28
-43 -29 -49 -8 -10 40 64 110 151 141 23 8 82 22 130 32 101 19 135 36 126 62
-13 39 -29 41 -148 15 -125 -26 -192 -51 -242 -89 -38 -29 -43 -30 -43 -4 0
11 4 19 8 17 12 -3 70 53 94 92 25 40 26 109 1 149 -9 15 -34 43 -56 63 -36
34 -38 38 -30 70 6 19 9 55 8 82 -1 41 2 47 20 48 54 2 126 35 133 61 2 10 8
18 13 18 4 0 12 19 16 42 l9 43 84 2 c111 4 184 30 230 81 l35 39 40 -32 c22
-18 49 -35 60 -37z m-612 -6 c46 -43 30 -82 -28 -68 -27 7 -38 26 -49 90 l-8
39 29 -18 c15 -10 40 -29 56 -43z m-320 -222 c1 -27 -5 -46 -17 -58 -14 -14
-17 -14 -16 -2 5 37 0 61 -12 54 -10 -6 -10 -4 -2 7 6 8 9 39 8 69 l-2 55 19
-43 c11 -23 21 -61 22 -82z m1424 106 c50 -1 72 -18 54 -40 -11 -13 -17 -14
-40 -2 -14 8 -42 16 -62 19 -42 5 -59 14 -59 28 0 7 12 8 33 3 17 -4 51 -8 74
-8z m400 -131 c23 -14 50 -39 58 -55 21 -41 19 -44 -12 -22 -16 11 -44 25 -64
32 -29 11 -35 18 -35 41 0 16 2 29 4 29 3 0 25 -11 49 -25z m-2107 -33 c0 -7
4 -11 9 -8 4 3 8 -4 7 -16 -1 -17 -13 -24 -69 -40 -38 -10 -86 -27 -107 -38
-44 -22 -50 -17 -50 51 0 49 23 65 116 83 61 11 70 11 81 -3 7 -9 13 -22 13
-29z m1915 3 c2 -19 -1 -38 -6 -41 -5 -3 -9 0 -9 5 0 6 -7 11 -15 11 -8 0 -19
9 -25 20 -9 16 -6 22 17 34 34 17 35 16 38 -29z m-280 -4 c3 -5 1 -12 -5 -16
-5 -3 -10 1 -10 9 0 18 6 21 15 7z m81 -209 c-12 -12 -18 8 -10 35 l8 28 4
-28 c2 -16 1 -31 -2 -35z m-1217 -20 c28 -23 33 -33 27 -55 -10 -43 -33 -20
-74 75 -7 16 15 7 47 -20z m-445 -39 c-22 -16 -25 -13 -17 15 4 18 8 20 20 10
13 -10 13 -14 -3 -25z m1956 2 c0 -5 -5 -3 -10 5 -5 8 -10 20 -10 25 0 6 5 3
10 -5 5 -8 10 -19 10 -25z m267 -20 c5 -22 8 -66 7 -98 -2 -53 -5 -61 -37 -90
-19 -18 -39 -41 -45 -52 -9 -17 -11 -16 -16 15 -6 44 -5 70 4 70 11 0 60 155
60 187 0 36 15 19 27 -32z m-243 -42 c6 -17 3 -23 -8 -23 -11 0 -15 10 -14 36
1 35 9 31 22 -13z m-312 -7 c-3 -5 -9 -1 -13 10 -12 31 -10 39 5 19 8 -11 12
-24 8 -29z m-1312 -157 c14 -26 31 -161 31 -253 0 -96 -12 -170 -36 -215 -24
-48 -97 -133 -105 -124 -4 4 -10 26 -13 48 -6 38 -4 44 43 93 65 69 83 106 83
167 -1 64 -21 111 -78 184 -25 31 -45 65 -45 75 0 9 12 27 27 40 24 21 30 22
56 11 16 -7 33 -19 37 -26z m1481 -86 l21 -33 -21 -29 c-12 -16 -21 -33 -21
-38 0 -4 -6 -16 -13 -25 -11 -14 -13 -6 -15 52 -2 38 -5 86 -8 106 -4 37 -4
37 16 19 11 -10 30 -34 41 -52z m-1778 4 c18 -21 18 -22 -3 -39 -28 -23 -54
-10 -69 33 -6 18 -11 36 -11 40 0 14 64 -12 83 -34z m2350 18 c-3 -9 -8 -13
-11 -10 -3 3 -14 -3 -25 -12 -19 -17 -20 -17 -9 4 16 30 56 46 45 18z m-2513
-130 c26 16 -6 -27 -41 -54 -45 -37 -58 -35 -51 10 4 25 2 30 -9 24 -8 -4 4 8
26 28 l40 35 13 -24 c7 -14 17 -22 22 -19z m303 -95 c-3 -11 -10 -23 -16 -27
-5 -3 -8 -2 -5 3 3 5 8 17 11 27 9 24 16 22 10 -3z m-215 -108 c-36 -55 -90
-89 -108 -67 -16 20 4 58 48 93 87 69 115 56 60 -26z m1992 -47 c-20 -24 -70
-58 -70 -47 0 8 69 62 79 62 2 0 -2 -7 -9 -15z m118 -181 c3 -37 -14 -61 -43
-61 -18 0 -23 3 -16 11 5 6 10 16 12 21 3 16 31 55 38 55 4 0 8 -12 9 -26z
m218 -140 l-26 -57 -30 28 c-17 16 -30 33 -30 38 0 6 9 36 21 67 l21 58 35
-39 35 -38 -26 -57z m-2376 101 c27 -14 70 -60 70 -75 0 -8 -77 -30 -103 -30
-10 0 -16 13 -19 40 -2 22 0 40 4 40 5 0 7 3 7 8 -3 14 1 32 6 32 4 0 19 -7
35 -15z m1872 -60 c11 -14 23 -23 26 -21 13 8 11 -59 -2 -77 -16 -21 -34 -15
-65 25 -23 29 -23 31 -8 64 9 19 19 34 23 34 3 0 15 -11 26 -25z m-1702 -169
c0 -13 -4 -36 -9 -52 -5 -16 -12 -41 -15 -57 -6 -25 -10 -27 -44 -25 -32 3
-41 10 -69 52 -18 26 -33 52 -33 56 0 9 152 58 163 53 4 -2 7 -14 7 -27z
m1600 16 c0 -5 -9 -17 -21 -28 -21 -19 -21 -19 -8 9 12 26 29 37 29 19z m567
-174 c2 -17 0 -19 -7 -8 -5 8 -6 18 -4 22 8 12 10 10 11 -14z m-565 -50 c-7
-7 -12 -20 -12 -29 0 -9 -9 -19 -20 -22 -13 -3 -18 -1 -14 6 10 17 47 57 53
57 3 0 0 -5 -7 -12z m-1012 -27 c0 -5 16 -26 35 -47 32 -35 35 -43 29 -78 -7
-46 7 -78 56 -123 l35 -32 -23 -21 -22 -21 -44 44 -44 43 10 46 c13 55 -8 132
-49 187 -24 30 -24 32 -4 22 11 -7 21 -15 21 -20z m785 -58 c-26 -67 -26 -128
1 -180 19 -39 23 -61 23 -137 -1 -102 13 -175 41 -223 11 -18 15 -35 10 -38
-52 -32 -350 -42 -465 -16 -90 21 -85 16 -69 69 38 123 8 266 -83 404 -29 45
-51 84 -48 86 3 3 24 0 47 -7 94 -29 158 -38 239 -35 113 3 206 31 275 84 22
16 40 29 41 29 2 1 -4 -16 -12 -36z m725 -48 c14 -34 19 -61 15 -72 -5 -10 -7
-21 -7 -25 1 -5 -5 -8 -13 -8 -9 0 -15 10 -16 23 0 12 -2 31 -4 42 -9 46 -12
104 -5 100 4 -3 18 -29 30 -60z m-1712 -44 c-4 -34 -51 -53 -73 -30 -14 14
-13 20 7 63 l23 47 23 -27 c14 -16 22 -36 20 -53z m1590 -13 c6 -57 7 -88 2
-88 -49 1 -63 32 -34 75 18 27 30 32 32 13z m-368 -8 c0 -5 -5 -10 -11 -10 -5
0 -7 5 -4 10 3 6 8 10 11 10 2 0 4 -4 4 -10z m198 -162 c7 -7 12 -18 12 -25 0
-17 -53 -30 -58 -15 -2 7 -10 12 -17 12 -8 0 -17 5 -21 12 -4 6 -3 8 3 5 6 -4
19 0 29 8 23 18 37 18 52 3z m-255 -58 c3 -25 13 -65 21 -89 17 -47 13 -69 -9
-51 -18 15 -33 121 -26 184 2 21 10 -2 14 -44z m-1000 18 c42 -36 57 -87 57
-185 l-1 -88 -18 47 c-19 49 -42 78 -60 78 -6 0 -11 4 -11 9 0 5 -13 12 -30
16 -34 7 -35 9 -44 52 -7 29 -4 33 33 54 23 12 41 26 41 31 0 12 4 10 33 -14z
m-334 -60 c1 -5 -6 -8 -14 -8 -11 0 -15 11 -14 43 l1 42 13 -35 c7 -19 14 -38
14 -42z m1468 -24 c-9 -9 -27 6 -27 22 0 13 2 13 16 -1 9 -9 14 -18 11 -21z
m-887 17 c0 -8 -42 -92 -45 -89 -1 2 -5 24 -7 50 -5 47 -5 47 23 45 16 -1 29
-4 29 -6z m-746 -43 c-2 -18 -9 -37 -14 -42 -12 -12 -13 -2 -4 43 8 41 22 40
18 -1z m1816 -40 c-3 -38 -1 -45 23 -55 26 -12 67 3 67 24 0 8 5 11 10 8 6 -4
8 -11 4 -16 -3 -5 -2 -15 3 -22 4 -7 8 -21 8 -32 0 -18 -7 -20 -68 -20 -63 0
-67 1 -67 23 0 13 -7 37 -16 53 -12 24 -13 34 -3 45 18 22 41 17 39 -8z
m-1620 -92 c0 -32 -2 -34 -32 -34 -18 0 -40 -2 -48 -4 -10 -2 -14 3 -12 17 6
32 33 55 64 55 25 0 28 -3 28 -34z m1735 -106 c28 -1 26 -3 -20 -21 -66 -28
-82 -30 -133 -23 -44 7 -82 32 -64 43 9 5 124 6 217 1z m-319 -118 c7 -7 37
-24 66 -39 99 -50 253 -31 355 44 31 22 33 23 67 7 33 -16 35 -20 31 -58 -13
-120 -16 -150 -21 -157 -2 -4 -29 -1 -59 6 -98 22 -185 5 -221 -44 -11 -14
-18 -14 -67 2 -120 38 -206 158 -199 277 l2 24 17 -24 c9 -14 23 -31 29 -38z
m-1237 -70 c8 -25 6 -29 -7 -27 -10 2 -23 4 -30 4 -10 1 -9 8 4 31 20 34 22
33 33 -8z m273 -153 c1 -30 -3 -63 -9 -73 -9 -16 -13 -12 -36 27 l-27 45 20
38 c10 22 22 48 26 59 6 18 8 16 16 -10 4 -16 9 -55 10 -86z m-336 -26 c-16
-8 -45 -22 -65 -30 -34 -14 -35 -14 -21 4 26 33 44 43 79 43 l36 -1 -29 -16z
m1732 -101 c2 -7 -13 -29 -34 -50 -37 -37 -37 -37 -47 -14 -9 20 -6 27 24 52
35 30 50 33 57 12z m-1538 -62 c0 -5 -5 -10 -11 -10 -5 0 -7 5 -4 10 3 6 8 10
11 10 2 0 4 -4 4 -10z"/>
<path d="M2040 2710 c-19 -19 -19 -22 -5 -57 9 -20 33 -60 55 -88 48 -62 70
-104 64 -120 -3 -7 -24 -20 -47 -30 -80 -32 -92 -41 -89 -61 6 -33 29 -43 70
-32 102 28 155 82 147 147 -3 21 -25 64 -52 104 -27 37 -58 84 -70 104 -30 50
-48 58 -73 33z"/>
<path d="M2130 2170 c-27 -15 -56 -19 -122 -20 -86 0 -118 -12 -118 -42 0 -18
60 -132 84 -159 80 -92 180 -49 226 97 40 132 18 172 -70 124z m-35 -139 c-26
-51 -40 -49 -76 12 -9 15 -5 17 41 17 l51 0 -16 -29z"/>
</g>
</svg>
