<?xml version="1.0" standalone="no"?>
<!DOCTYPE svg PUBLIC "-//W3C//DTD SVG 20010904//EN"
 "http://www.w3.org/TR/2001/REC-SVG-20010904/DTD/svg10.dtd">
<svg version="1.0" xmlns="http://www.w3.org/2000/svg"
 width="336.000000pt" height="336.000000pt" viewBox="0 0 336.000000 336.000000"
 preserveAspectRatio="xMidYMid meet">
<metadata>
Created by potrace 1.11, written by Peter Selinger 2001-2013
</metadata>
<g transform="translate(0.000000,336.000000) scale(0.100000,-0.100000)"
fill="#000000" stroke="none">
<path d="M1499 3336 c-15 -9 -69 -20 -120 -26 -315 -35 -546 -151 -726 -361
-30 -35 -98 -129 -151 -209 -375 -563 -522 -1201 -397 -1719 134 -550 656
-933 1380 -1012 301 -32 680 28 912 144 185 94 420 249 515 340 200 192 331
496 383 892 22 160 22 480 0 640 -79 596 -305 962 -709 1150 -229 107 -498
159 -876 170 -154 5 -189 3 -211 -9z m603 -235 c387 -67 632 -210 780 -457 85
-140 149 -323 189 -538 27 -141 37 -501 20 -657 -26 -219 -83 -425 -162 -579
-91 -178 -187 -269 -453 -429 -208 -126 -326 -173 -516 -205 -357 -62 -738 -6
-1065 155 -334 164 -534 410 -596 732 -83 428 33 938 319 1411 184 302 317
432 520 506 141 51 223 62 522 70 151 3 287 7 302 8 14 1 77 -7 140 -17z"/>
<path d="M1527 2569 c-116 -9 -313 -42 -415 -68 -129 -34 -147 -66 -132 -239
20 -216 54 -404 179 -977 28 -126 58 -278 67 -336 17 -101 17 -108 0 -144 -24
-51 -14 -99 30 -143 l35 -35 132 6 c372 15 733 158 933 369 182 192 201 394
50 536 -29 28 -70 59 -92 70 -59 30 -168 61 -267 75 l-89 12 66 53 c170 136
270 324 253 474 -23 193 -196 319 -477 348 -112 11 -129 11 -273 -1z m382
-273 c63 -21 121 -72 121 -108 0 -42 -49 -128 -107 -190 -110 -114 -293 -216
-494 -274 -50 -14 -95 -22 -99 -18 -13 15 -73 343 -94 516 -6 54 -15 49 124
72 146 24 144 24 325 22 129 -2 183 -7 224 -20z m154 -871 c90 -16 162 -47
184 -81 14 -22 14 -28 -2 -70 -29 -78 -154 -188 -290 -256 -110 -56 -355 -127
-437 -128 -25 0 -27 4 -38 73 -7 39 -29 154 -49 254 l-37 181 80 12 c231 32
459 38 589 15z"/>
</g>
</svg>
