<?xml version="1.0" standalone="no"?>
<!DOCTYPE svg PUBLIC "-//W3C//DTD SVG 20010904//EN"
 "http://www.w3.org/TR/2001/REC-SVG-20010904/DTD/svg10.dtd">
<svg version="1.0" xmlns="http://www.w3.org/2000/svg"
 width="400.000000pt" height="400.000000pt" viewBox="0 0 400.000000 400.000000"
 preserveAspectRatio="xMidYMid meet">
<metadata>
Created by potrace 1.11, written by Peter Selinger 2001-2013
</metadata>
<g transform="translate(0.000000,400.000000) scale(0.100000,-0.100000)"
fill="#000000" stroke="none">
<path d="M2445 3985 c253 -66 470 -197 592 -360 138 -184 197 -398 197 -720 0
-225 -13 -288 -94 -450 -83 -167 -229 -320 -403 -423 l-80 -47 34 -9 c86 -22
281 -92 344 -123 329 -165 535 -419 607 -753 32 -148 31 -425 -3 -603 -32
-170 -126 -390 -202 -475 l-20 -22 291 0 292 0 0 2000 0 2000 -802 -1 c-677
-1 -795 -3 -753 -14z"/>
<path d="M965 2738 l0 -473 260 1 c334 0 445 9 575 48 197 58 297 204 305 442
9 268 -81 394 -311 438 -64 12 -163 15 -455 16 l-374 0 0 -472z"/>
<path d="M987 1418 c-9 -5 -12 -144 -12 -523 l0 -517 430 7 c236 3 444 7 460
9 133 14 223 31 285 52 8 3 16 5 18 4 1 0 33 16 71 35 115 59 191 156 227 288
21 76 26 250 8 315 -50 188 -214 286 -534 318 -158 16 -931 26 -953 12z"/>
</g>
</svg>
