<svg version="1" xmlns="http://www.w3.org/2000/svg" width="533.333" height="533.333" viewBox="0 0 400.000000 400.000000"><path d="M244.5 1.5c25.3 6.6 47 19.7 59.2 36 13.8 18.4 19.7 39.8 19.7 72 0 22.5-1.3 28.8-9.4 45-8.3 16.7-22.9 32-40.3 42.3l-8 4.7 3.4.9c8.6 2.2 28.1 9.2 34.4 12.3 32.9 16.5 53.5 41.9 60.7 75.3 3.2 14.8 3.1 42.5-.3 60.3-3.2 17-12.6 39-20.2 47.5l-2 2.2H400V0l-80.2.1c-67.7.1-79.5.3-75.3 1.4zM96.5 126.2v47.3l26-.1c33.4 0 44.5-.9 57.5-4.8 19.7-5.8 29.7-20.4 30.5-44.2.9-26.8-8.1-39.4-31.1-43.8-6.4-1.2-16.3-1.5-45.5-1.6H96.5v47.2zM98.7 258.2c-.9.5-1.2 14.4-1.2 52.3v51.7l43-.7c23.6-.3 44.4-.7 46-.9 13.3-1.4 22.3-3.1 28.5-5.2.8-.3 1.6-.5 1.8-.4.1 0 3.3-1.6 7.1-3.5 11.5-5.9 19.1-15.6 22.7-28.8 2.1-7.6 2.6-25 .8-31.5-5-18.8-21.4-28.6-53.4-31.8-15.8-1.6-93.1-2.6-95.3-1.2z"/></svg>