<?xml version="1.0" standalone="no"?>
<!DOCTYPE svg PUBLIC "-//W3C//DTD SVG 20010904//EN"
 "http://www.w3.org/TR/2001/REC-SVG-20010904/DTD/svg10.dtd">
<svg version="1.0" xmlns="http://www.w3.org/2000/svg"
 width="568.000000pt" height="568.000000pt" viewBox="0 0 568.000000 568.000000"
 preserveAspectRatio="xMidYMid meet">
<metadata>
Created by potrace 1.14, written by Peter Selinger 2001-2017
</metadata>
<g transform="translate(0.000000,568.000000) scale(0.100000,-0.100000)"
fill="#000000" stroke="none">
<path d="M556 5571 c-2 -3 -3 -1181 -3 -2616 l2 -2610 80 0 80 0 5 -145 5
-145 1350 1 c1171 0 1511 4 1625 19 14 1 54 6 90 10 36 3 72 8 80 10 8 2 35 7
60 11 25 3 50 7 55 8 6 2 28 6 50 10 316 61 636 206 833 379 209 182 348 427
412 722 22 100 25 123 36 245 49 573 -137 1025 -542 1315 -90 65 -277 164
-391 206 -35 13 -63 26 -63 29 0 3 20 20 44 38 111 83 229 217 305 346 28 48
51 89 51 91 0 3 8 24 19 48 64 145 85 258 86 467 0 188 -6 261 -36 397 -88
406 -302 679 -665 850 -40 18 -75 33 -78 33 -4 0 -61 25 -127 55 -177 82 -349
136 -544 170 -16 2 -39 7 -50 9 -11 2 -45 7 -75 11 -30 3 -66 8 -80 11 -25 3
-76 8 -225 21 -98 8 -2384 12 -2389 4z m3866 -653 c195 -202 294 -495 300
-883 2 -182 -24 -321 -87 -465 -70 -160 -215 -336 -362 -442 l-80 -58 -151 50
c-84 28 -161 50 -171 50 -11 0 -23 5 -26 10 -3 6 -2 10 3 10 4 0 39 19 78 42
219 131 383 300 478 493 54 109 70 156 92 271 23 123 22 433 -1 514 -3 8 -7
29 -9 45 -16 125 -84 313 -157 432 l-23 38 39 -34 c22 -19 57 -51 77 -73z
m-1719 -342 c149 -9 282 -50 349 -108 29 -26 88 -106 88 -121 0 -5 -12 -6 -27
-2 -32 8 -42 10 -103 20 -25 5 -237 9 -472 9 l-428 2 -1 -31 c0 -16 -1 -212
-2 -435 l-2 -405 -122 -1 -123 -2 -1 27 c-1 34 -1 964 0 1016 l1 40 372 -1
c205 -1 417 -4 471 -8z m318 -321 c46 -7 101 -19 122 -28 33 -14 37 -20 38
-54 15 -363 -99 -544 -391 -622 -116 -31 -255 -44 -465 -45 l-110 -1 -1 370
c0 204 2 375 4 382 5 16 690 15 803 -2z m1872 -1720 c144 -148 247 -347 293
-564 23 -112 28 -162 28 -301 2 -708 -295 -1153 -913 -1365 -178 -61 -365 -98
-661 -131 -36 -4 -682 -8 -1437 -9 l-1372 -2 -3 88 c-2 54 1 89 7 90 6 1 557
3 1225 4 668 2 1242 6 1275 8 234 19 301 28 474 64 742 152 1127 547 1199
1228 14 140 6 392 -17 502 -36 175 -103 330 -198 463 l-46 65 39 -35 c21 -19
69 -66 107 -105z m-2103 -9 c80 -3 156 -8 170 -10 14 -2 52 -7 85 -10 91 -10
122 -16 213 -42 93 -27 146 -52 210 -98 40 -28 106 -105 98 -113 -2 -2 -16 1
-32 8 -45 17 -192 47 -264 54 -36 4 -76 9 -90 12 -14 3 -260 7 -547 10 l-523
5 0 -28 c-1 -16 -1 -239 -2 -495 l-1 -465 -123 -2 c-112 -2 -124 0 -125 15 0
10 -1 274 -1 588 l-1 570 69 5 c91 7 680 4 864 -4z m350 -300 c160 -9 285 -35
380 -80 89 -42 101 -55 104 -114 4 -77 -12 -201 -35 -270 -67 -209 -264 -344
-549 -378 -30 -3 -58 -8 -62 -10 -11 -7 -300 -16 -538 -18 l-225 -1 0 437 0
437 30 3 c51 5 784 0 895 -6z"/>
</g>
</svg>
